/vscmnt/brussel_pixiu_data/_data_brussel/112/vsc11236/PredSimResults/SUBJ04opt3D/expIG/worker_10.mot
version=1
nRows=8
nColumns=50
inDegrees=yes
endheader
                time	         pelvis_tilt	         pelvis_list	     pelvis_rotation	           pelvis_tx	           pelvis_ty	           pelvis_tz	       hip_flexion_r	     hip_adduction_r	      hip_rotation_r	        knee_angle_r	       ankle_angle_r	         mtp_angle_r	       hip_flexion_l	     hip_adduction_l	      hip_rotation_l	        knee_angle_l	       ankle_angle_l	         mtp_angle_l	    lumbar_extension	      lumbar_bending	     lumbar_rotation	 ercspn_r/activation	 intobl_r/activation	 extobl_r/activation	    abd_r/activation	    add_r/activation	hamstrings_r/activation	bifemsh_r/activation	glut_max_r/activation	iliopsoas_r/activation	rect_fem_r/activation	  vasti_r/activation	gastroc_r/activation	 soleus_r/activation	tib_ant_r/activation	 ercspn_l/activation	 intobl_l/activation	 extobl_l/activation	    abd_l/activation	    add_l/activation	hamstrings_l/activation	bifemsh_l/activation	glut_max_l/activation	iliopsoas_l/activation	rect_fem_l/activation	  vasti_l/activation	gastroc_l/activation	 soleus_l/activation	tib_ant_l/activation	
          0.50033225	         -5.49075649	          0.11172788	         -7.58823353	          0.75049838	          0.86603232	          0.00685236	        -15.19829012	         -0.46165461	         -3.99155658	         -9.42161667	          6.04742223	         34.16892272	         34.75522586	         -2.34529102	         -7.00453515	        -11.17250029	          7.21049319	          0.28674591	        -12.46556075	          0.34588342	         10.29719202	          0.09926818	          0.01000020	          0.01000011	          0.03404926	          0.01000162	          0.05151493	          0.26582318	          0.01361384	          0.31240971	          0.01000091	          0.01000052	          0.29577798	          0.25512428	          0.01170033	          0.11676568	          0.15535587	          0.01000077	          0.02658504	          0.48023940	          0.07145300	          0.07569289	          0.15609761	          0.12495543	          0.01854319	          0.01780979	          0.01000095	          0.01000032	          0.40474052	
          0.51033890	         -5.49610196	          0.17305071	         -7.46235357	          0.76902568	          0.86382131	          0.00658961	        -15.49577244	         -0.69607453	         -4.50648455	        -11.03843246	          5.13248369	         36.02319721	         34.71475899	         -2.10043347	         -6.80332345	        -13.11942744	          6.85174210	          0.25141024	        -12.02331980	         -0.12714242	         10.55082842	          0.14526595	          0.01000019	          0.01000024	          0.02918232	          0.01166787	          0.04435375	          0.22782702	          0.01166794	          0.31343286	          0.01000025	          0.01000017	          0.25349994	          0.21865733	          0.01002791	          0.10007551	          0.13314961	          0.01000023	          0.07480161	          0.41159541	          0.08433822	          0.06487367	          0.21542032	          0.10709450	          0.01589272	          0.05209084	          0.01363474	          0.02181591	          0.43640675	
          0.52034554	         -5.48770376	          0.29049524	         -7.30686133	          0.78769492	          0.86180669	          0.00623948	        -15.55414631	         -1.01668168	         -5.04146981	        -13.11292834	          4.16002818	         37.75842177	         34.50671932	         -1.82914139	         -6.60072311	        -14.83805625	          6.44134579	          0.24191107	        -11.57146907	         -0.65617984	         10.74736093	          0.12619358	          0.01000007	          0.01000014	          0.02501105	          0.01000118	          0.03801911	          0.19526193	          0.01000019	          0.34043915	          0.01000030	          0.01000008	          0.21726505	          0.18740281	          0.01000002	          0.08577436	          0.11411745	          0.01000022	          0.13543846	          0.36068170	          0.07489579	          0.05560098	          0.19154520	          0.09178658	          0.01362111	          0.11203623	          0.01168590	          0.01869761	          0.49200109	
          0.53035219	         -5.46822036	          0.43787000	         -7.11792106	          0.80624943	          0.86015288	          0.00576215	        -15.29577718	         -1.40537824	         -5.58991383	        -15.74262074	          3.09409909	         39.26938068	         34.20994965	         -1.51230851	         -6.45557649	        -16.36039795	          5.89187122	          0.20923771	        -11.14672018	         -1.20809706	         10.88461548	          0.15212273	          0.01000020	          0.01000013	          0.02143601	          0.03905076	          0.05455669	          0.16735160	          0.01000015	          0.29177765	          0.01000017	          0.01000006	          0.18620951	          0.16061575	          0.01000007	          0.07351508	          0.09780570	          0.01000042	          0.16654750	          0.33462193	          0.07191001	          0.04765370	          0.16416651	          0.07866676	          0.01167422	          0.22831151	          0.01001574	          0.01602505	          0.53405853	
          0.54035883	         -5.44046764	          0.61793078	         -6.90592970	          0.82453332	          0.85900028	          0.00517236	        -14.67820665	         -1.87559852	         -6.15352930	        -18.96054107	          1.92616483	         40.33520355	         33.82233635	         -1.14627099	         -6.34578530	        -17.73973344	          5.55891134	          0.16965104	        -10.76607872	         -1.78540792	         10.96807997	          0.19306527	          0.01000018	          0.01000014	          0.01837198	          0.08069486	          0.04676227	          0.14343073	          0.01000007	          0.25007159	          0.01000013	          0.01000003	          0.15959301	          0.13765759	          0.01000010	          0.06300719	          0.08382552	          0.01000029	          0.21724608	          0.28679278	          0.07027633	          0.04084237	          0.14070212	          0.06742226	          0.01000569	          0.35380686	          0.01000118	          0.01373455	          0.55485066	
          0.55036548	         -5.40883315	          0.82288307	         -6.66970761	          0.84239334	          0.85854161	          0.00448445	        -13.66524909	         -2.42886455	         -6.74283522	        -22.79697448	          0.69477157	         40.57798037	         33.30972973	         -0.73412210	         -6.25034790	        -18.90549845	          5.49921936	          0.13293464	        -10.44575090	         -2.37754411	         10.99455769	          0.21663149	          0.01000020	          0.01000017	          0.01574593	          0.15713420	          0.04007983	          0.12292906	          0.01000005	          0.21432685	          0.01000012	          0.01000002	          0.13678104	          0.11798103	          0.03321520	          0.05400115	          0.07184365	          0.01000027	          0.25546063	          0.24580200	          0.07071365	          0.03500463	          0.12059184	          0.05778503	          0.01000043	          0.43573117	          0.01000397	          0.01177149	          0.55355656	
          0.56037212	         -5.37738059	          1.03457605	         -6.40730968	          0.85968959	          0.85889866	          0.00373011	        -12.24079778	         -3.05393581	         -7.35959902	        -27.23061784	         -0.61319233	         39.72278806	         32.65790798	         -0.29326383	         -6.15642257	        -19.80239899	          5.67654336	          0.10468027	        -10.20091255	         -2.96497457	         10.96078742	          0.22727004	          0.01000016	          0.01000017	          0.01349523	          0.28448513	          0.03435188	          0.10535786	          0.01000004	          0.18369137	          0.01000012	          0.01000002	          0.11722977	          0.10111700	          0.10428793	          0.04628238	          0.06157445	          0.01000029	          0.28129280	          0.23962985	          0.07594785	          0.03000133	          0.10335518	          0.04952533	          0.01000044	          0.46479426	          0.01000053	          0.01008900	          0.53187164	
          0.57037877	         -5.34808516	          1.22311085	         -6.11736397	          0.87634312	          0.86004065	          0.00295130	        -10.43780478	         -3.72105359	         -7.99254175	        -32.18020114	         -1.86971128	         37.43883460	         31.87425071	          0.14228617	         -6.05133696	        -20.42444712	          6.03979805	          0.08734079	        -10.04054811	         -3.51608106	         10.86556499	          0.24470874	          0.01201211	          0.01000028	          0.01156627	          0.32372507	          0.02944241	          0.09029826	          0.01000012	          0.15743488	          0.01000047	          0.01000006	          0.10047313	          0.08666350	          0.22351358	          0.03966689	          0.05277311	          0.01000040	          0.30312044	          0.23229766	          0.08031439	          0.02571319	          0.08858218	          0.04244626	          0.01000033	          0.45953636	          0.01000139	          0.01000069	          0.48421094	
